#!OML:ASF F:\VICON\USERDATA\INSTALL\rory3\rory3.ASF
:FULLY-SPECIFIED
:DEGREES
1797
root -5.71701 17.6745 -8.30743 9.39378 5.62105 -1.00449
lowerback 13.58 0.648004 0.959407
upperback 4.8183 1.04367 1.58079
thorax -2.5567 0.517123 0.945223
lowerneck -22.9386 -1.05543 -8.87126
upperneck 12.5759 1.55297 -1.02339
head 7.56229 0.183389 1.26634
rclavicle 1.19271e-015 -2.34566e-014
rhumerus 0.925373 13.7396 -66.9036
rradius 57.1415
rwrist 22.1028
rhand -24.4102 0.393978
rfingers 7.12502
rthumb 2.08123 -29.5756
lclavicle 1.19271e-015 -2.34566e-014
lhumerus -13.5799 -13.9108 92.8612
lradius 51.0262
lwrist -23.3218
lhand -18.472 28.0331
lfingers 7.12502
lthumb 7.81482 57.8687
rfemur -23.6012 -6.24891 23.1306
rtibia 36.837
rfoot -21.3194 -6.514
rtoes 3.07415
lfemur -35.6845 -2.2984 -14.9471
ltibia 21.9692
lfoot -3.89986 3.76895
ltoes -20.2082
1798
root -5.70607 17.6894 -8.40046 9.72665 5.8466 -0.979428
lowerback 14.2141 0.688615 0.892151
upperback 4.85927 1.1023 1.64411
thorax -2.85818 0.544855 1.03368
lowerneck -22.8563 -0.969847 -8.84108
upperneck 12.6441 1.64667 -0.991485
head 7.56785 0.230851 1.28462
rclavicle 9.74045e-015 7.95139e-016
rhumerus -0.262674 14.3638 -68.3898
rradius 55.6368
rwrist 23.2394
rhand -25.362 0.0605744
rfingers 7.12502
rthumb 1.16191 -29.916
lclavicle 9.74045e-015 7.95139e-016
lhumerus -13.7992 -14.7705 93.7306
lradius 49.3864
lwrist -24.2927
lhand -18.2452 27.7385
lfingers 7.12502
lthumb 8.03372 57.5658
rfemur -24.2348 -5.93737 23.0866
rtibia 36.7414
rfoot -21.2513 -7.01406
rtoes 3.48265
lfemur -35.9432 -2.42278 -14.4689
ltibia 22.7949
lfoot -4.02925 3.68014
ltoes -20.7931
1799
root -5.69296 17.704 -8.49116 10.1988 6.00154 -0.729412
lowerback 14.671 0.763606 0.603995
upperback 4.92125 1.16806 1.6446
thorax -3.0451 0.576082 1.1815
lowerneck -23.0323 -0.813038 -8.61583
upperneck 12.9909 1.85692 -1.18493
head 7.70972 0.307626 1.21382
rclavicle 4.17448e-015 1.70955e-014
rhumerus -1.3353 14.8322 -69.8966
rradius 54.2508
rwrist 23.8859
rhand -25.8719 -0.478726
rfingers 7.12502
rthumb 0.669488 -30.4574
lclavicle 4.17448e-015 1.70955e-014
lhumerus -13.9455 -15.5201 94.5579
lradius 47.7568
lwrist -25.7721
lhand -18.3246 27.5777
lfingers 7.12502
lthumb 7.95707 57.4079
rfemur -25.0061 -5.66561 22.7802
rtibia 36.6537
rfoot -21.1068 -7.47321
rtoes 3.64825
lfemur -36.3115 -2.48872 -14.263
ltibia 23.6627
lfoot -4.02044 3.73077
ltoes -20.5292
1800
root -5.6761 17.7221 -8.57441 10.8059 6.04583 -0.154841
lowerback 14.9022 0.861355 0.0339642
upperback 5.10995 1.21208 1.54803
thorax -2.98082 0.595956 1.39377
lowerneck -23.597 -0.736782 -8.46547
upperneck 13.4142 2.03483 -1.40995
head 7.94387 0.355137 1.14137
rclavicle 6.95746e-015 -1.19271e-015
rhumerus -2.18668 15.0704 -71.3897
rradius 52.8617
rwrist 24.8262
rhand -26.0634 -0.505533
rfingers 7.12502
rthumb 0.484551 -30.4847
lclavicle 6.95746e-015 -1.19271e-015
lhumerus -13.863 -16.2021 95.3003
lradius 46.2906
lwrist -26.9861
lhand -18.2793 27.912
lfingers 7.12502
lthumb 8.00077 57.7405
rfemur -25.8785 -5.52508 22.1074
rtibia 36.5231
rfoot -20.7907 -7.86875
rtoes 3.43931
lfemur -36.7463 -2.44816 -14.4889
ltibia 24.6294
lfoot -3.87816 3.8912
ltoes -19.6174
1801
root -5.6535 17.7428 -8.6587 11.2215 6.25205 0.0845528
lowerback 15.3401 0.844602 -0.0172063
upperback 5.30345 1.18166 1.48134
thorax -3.01002 0.580797 1.35452
lowerneck -23.9928 -0.662981 -8.37758
upperneck 13.7527 2.17622 -1.47195
head 8.12085 0.403402 1.12852
rclavicle 1.27222e-014 -6.75868e-015
rhumerus -3.08344 15.2863 -72.946
rradius 51.4084
rwrist 26.1813
rhand -25.8407 -0.320078
rfingers 7.12502
rthumb 0.699602 -30.2987
lclavicle 1.27222e-014 -6.75868e-015
lhumerus -13.8581 -16.909 95.9057
lradius 45.0661
lwrist -27.3459
lhand -17.7127 28.5282
lfingers 7.12502
lthumb 8.54756 58.3352
rfemur -26.5141 -5.52657 21.7897
rtibia 36.3165
rfoot -20.4888 -8.22259
rtoes 3.42027
lfemur -37.0547 -2.38543 -14.3927
ltibia 25.6692
lfoot -3.70835 3.99431
ltoes -19.267
1802
root -5.62857 17.7611 -8.74674 11.4934 6.58886 -0.12525
lowerback 15.8325 0.836629 0.476583
upperback 5.28529 1.25002 1.47635
thorax -3.28298 0.616821 1.05176
lowerneck -23.0641 -0.531646 -8.12481
upperneck 13.7543 2.18166 -1.51962
head 7.97141 0.422558 1.0714
rclavicle -1.31198e-014 5.56597e-015
rhumerus -4.66748 15.3576 -74.6205
rradius 50.1004
rwrist 27.6256
rhand -25.1731 -0.361996
rfingers 7.12502
rthumb 1.34439 -30.3375
lclavicle -1.31198e-014 5.56597e-015
lhumerus -14.4859 -17.8387 96.6097
lradius 43.784
lwrist -28.0626
lhand -17.7513 28.6002
lfingers 7.12502
lthumb 8.51036 58.4088
rfemur -26.9754 -5.57154 21.9731
rtibia 36.0093
rfoot -20.1221 -8.57493
rtoes 3.64104
lfemur -37.3227 -2.22261 -13.837
ltibia 26.7766
lfoot -3.66268 4.03994
ltoes -19.0889
1803
root -5.60656 17.7816 -8.83203 11.7989 6.85994 -0.142971
lowerback 16.3532 0.834037 0.777651
upperback 5.50228 1.29693 1.45649
thorax -3.32419 0.641201 0.84704
lowerneck -23.2569 -0.538127 -8.20908
upperneck 14.086 2.20849 -1.38113
head 8.11209 0.431011 1.13784
rclavicle 9.14409e-015 -8.74653e-015
rhumerus -5.676 15.3114 -76.0636
rradius 48.8828
rwrist 28.7938
rhand -24.3118 -0.571257
rfingers 7.12502
rthumb 2.17624 -30.5399
lclavicle 9.14409e-015 -8.74653e-015
lhumerus -14.5793 -18.7308 97.1593
lradius 42.5042
lwrist -28.8198
lhand -18.1256 28.6851
lfingers 7.12502
lthumb 8.14914 58.508
rfemur -27.4318 -5.55636 21.9357
rtibia 35.6438
rfoot -19.7439 -8.96019
rtoes 3.72549
lfemur -37.6493 -2.10575 -13.4408
ltibia 27.9831
lfoot -3.68212 4.28573
ltoes -17.4096
1804
root -5.58494 17.8056 -8.91423 12.1594 7.06564 0.0220285
lowerback 17.0481 0.877197 0.776616
upperback 5.53844 1.36299 1.4321
thorax -3.65408 0.673008 0.800135
lowerneck -23.2279 -0.520375 -8.19654
upperneck 14.4717 2.23607 -1.34704
head 8.23775 0.433649 1.15384
rclavicle 5.96354e-015 1.47101e-014
rhumerus -6.8875 15.383 -77.4833
rradius 47.6099
rwrist 29.7868
rhand -24.0196 -0.635459
rfingers 7.12502
rthumb 2.45844 -30.601
lclavicle 5.96354e-015 1.47101e-014
lhumerus -15.0374 -19.5701 97.8195
lradius 41.5396
lwrist -28.9771
lhand -17.8515 29.3297
lfingers 7.12502
lthumb 8.41363 59.1421
rfemur -27.9209 -5.50382 21.6823
rtibia 35.3137
rfoot -19.4206 -9.30163
rtoes 4.09415
lfemur -38.0248 -2.09389 -13.1618
ltibia 29.2383
lfoot -3.72039 4.67493
ltoes -15.0743
1805
root -5.56318 17.8219 -8.99979 12.7181 6.85129 0.112147
lowerback 17.7612 1.06082 0.599804
upperback 5.39401 1.58342 1.41713
thorax -4.19067 0.778845 0.827448
lowerneck -23.111 -0.448309 -8.1067
upperneck 14.9372 2.32881 -1.42299
head 8.37709 0.457006 1.12935
rclavicle -9.14409e-015 2.78299e-015
rhumerus -8.22969 15.6023 -78.9143
rradius 46.2006
rwrist 31.1211
rhand -23.7339 -0.999429
rfingers 7.12502
rthumb 2.73435 -30.9616
lclavicle -9.14409e-015 2.78299e-015
lhumerus -15.7769 -20.0787 98.4388
lradius 40.2257
lwrist -30.7586
lhand -19.0838 28.8659
lfingers 7.12502
lthumb 7.22425 58.7226
rfemur -28.7409 -5.22267 21.4718
rtibia 35.0557
rfoot -19.0187 -9.51963
rtoes 4.77283
lfemur -38.4622 -1.67527 -12.9229
ltibia 30.4618
lfoot -3.68333 5.13794
ltoes -15.2727
1806
root -5.54194 17.8313 -9.0846 13.4426 6.25333 0.0911825
lowerback 17.9591 1.39636 0.248221
upperback 5.4565 1.96067 1.45537
thorax -4.2458 0.962465 0.984695
lowerneck -23.1385 -0.358531 -7.98673
upperneck 15.2629 2.46916 -1.61346
head 8.49423 0.496035 1.0669
rclavicle 5.56597e-015 6.36111e-015
rhumerus -9.22421 15.8501 -80.1603
rradius 44.88
rwrist 32.1528
rhand -22.7483 -1.19013
rfingers 7.12502
rthumb 3.68616 -31.138
lclavicle 5.56597e-015 6.36111e-015
lhumerus -16.0813 -20.6952 98.9837
lradius 39.3374
lwrist -30.7908
lhand -19.2395 29.2513
lfingers 7.12502
lthumb 7.074 59.1131
rfemur -29.8405 -4.68937 21.3405
rtibia 34.8575
rfoot -18.447 -9.74218
rtoes 4.7537
lfemur -38.9173 -0.84451 -12.7235
ltibia 31.6084
lfoot -3.47414 5.59859
ltoes -17.3969
1807
root -5.51787 17.8403 -9.16448 13.9935 6.07014 -0.0110927
lowerback 17.8798 1.55293 0.075383
upperback 5.90594 2.13532 1.61405
thorax -3.74099 1.04643 1.22202
lowerneck -23.5581 -0.283265 -7.99004
upperneck 15.5282 2.67125 -1.81098
head 8.6547 0.553959 1.03084
rclavicle 2.10712e-014 1.51076e-014
rhumerus -9.56268 16.1943 -81.1154
rradius 43.606
rwrist 32.6845
rhand -21.4819 -1.20814
rfingers 7.12502
rthumb 4.90907 -31.1313
lclavicle 2.10712e-014 1.51076e-014
lhumerus -15.7495 -21.2723 99.3407
lradius 38.6003
lwrist -30.0858
lhand -18.2244 29.9354
lfingers 7.12502
lthumb 8.05377 59.7619
rfemur -30.6805 -4.46983 21.3431
rtibia 34.6509
rfoot -17.9728 -9.95387
rtoes 4.61195
lfemur -39.233 -0.238503 -12.3857
ltibia 32.7137
lfoot -3.31211 5.90204
ltoes -16.9833
1808
root -5.49069 17.8534 -9.24236 14.3741 6.21168 0.131005
lowerback 18.0936 1.58179 -0.056296
upperback 6.34349 2.14946 1.67871
thorax -3.39484 1.05116 1.36381
lowerneck -23.8423 -0.235928 -8.03968
upperneck 15.7917 2.81513 -1.90014
head 8.79151 0.594522 1.03102
rclavicle -1.27222e-014 4.77083e-015
rhumerus -9.94995 16.5342 -82.0877
rradius 42.3465
rwrist 32.9826
rhand -20.4916 -1.41284
rfingers 7.12502
rthumb 5.86522 -31.3117
lclavicle -1.27222e-014 4.77083e-015
lhumerus -15.5726 -21.7757 99.6196
lradius 38.1461
lwrist -29.6576
lhand -17.0237 30.9833
lfingers 7.12502
lthumb 9.21248 60.762
rfemur -31.2475 -4.42634 21.0732
rtibia 34.4495
rfoot -17.7143 -10.2164
rtoes 4.99507
lfemur -39.3538 0.00767717 -12.2227
ltibia 33.6987
lfoot -3.199 6.11332
ltoes -15.2534
1809
root -5.46303 17.8714 -9.32006 14.7238 6.38693 0.27264
lowerback 18.6141 1.6084 -0.119609
upperback 6.55047 2.17484 1.70148
thorax -3.44945 1.06223 1.4097
lowerneck -23.7209 -0.173518 -7.93436
upperneck 16.1386 2.90312 -2.05245
head 8.89418 0.61166 0.976407
rclavicle 1.11319e-014 -1.03368e-014
rhumerus -10.7627 16.8609 -83.1995
rradius 41.0587
rwrist 33.4008
rhand -20.0043 -1.63923
rfingers 7.12502
rthumb 6.33564 -31.5245
lclavicle 1.11319e-014 -1.03368e-014
lhumerus -15.8563 -22.06 99.9149
lradius 38.2127
lwrist -30.0883
lhand -15.8826 32.4982
lfingers 7.12502
lthumb 10.3134 62.2253
rfemur -31.7837 -4.38568 20.8057
rtibia 34.2716
rfoot -17.4726 -10.5128
rtoes 5.40183
lfemur -39.4509 0.247608 -12.0642
ltibia 34.4991
lfoot -2.92974 6.26348
ltoes -14.3775
1810
root -5.43134 17.8836 -9.39533 14.9784 6.92143 0.51291
lowerback 19.3007 1.48646 -0.0732267
upperback 6.7667 2.03064 1.7461
thorax -3.5708 0.99136 1.45014
lowerneck -23.715 -0.104582 -7.80044
upperneck 16.5933 3.03746 -2.32937
head 9.05723 0.631817 0.881798
rclavicle -3.29983e-014 7.95139e-016
rhumerus -11.4804 17.2113 -84.2102
rradius 39.6414
rwrist 34.0825
rhand -19.3539 -1.97927
rfingers 7.12502
rthumb 6.96356 -31.8447
lclavicle -3.29983e-014 7.95139e-016
lhumerus -16.1684 -22.0678 100.129
lradius 38.9004
lwrist -31.5539
lhand -19.27 33.8009
lfingers 7.12502
lthumb 7.04456 63.6637
rfemur -32.1805 -4.64018 20.4886
rtibia 34.1591
rfoot -17.3826 -10.8696
rtoes 5.34842
lfemur -39.4272 0.176158 -11.9365
ltibia 35.1975
lfoot -2.79064 6.34061
ltoes -13.1877
